# Blender 4.1.1
# www.blender.org
mtllib 3dsel.mtl
o Cube.001
v 0.500000 0.500000 -0.500000
v 0.500000 -0.500000 -0.500000
v 0.500000 0.500000 0.500000
v 0.500000 -0.500000 0.500000
v -0.500000 0.500000 -0.500000
v -0.500000 -0.500000 -0.500000
v -0.500000 0.500000 0.500000
v -0.500000 -0.500000 0.500000
v 0.522500 0.522500 -0.522500
v 0.522500 -0.522500 -0.522500
v 0.522500 0.522500 0.522500
v 0.522500 -0.522500 0.522500
v -0.522500 0.522500 -0.522500
v -0.522500 -0.522500 -0.522500
v -0.522500 0.522500 0.522500
v -0.522500 -0.522500 0.522500
v 0.500000 0.500000 -0.500000
v 0.500000 -0.500000 -0.500000
v 0.500000 0.500000 0.500000
v 0.500000 -0.500000 0.500000
v -0.500000 0.500000 -0.500000
v -0.500000 -0.500000 -0.500000
v -0.500000 0.500000 0.500000
v -0.500000 -0.500000 0.500000
v 0.522500 0.522500 -0.522500
v 0.522500 -0.522500 -0.522500
v 0.522500 0.522500 0.522500
v 0.522500 -0.522500 0.522500
v -0.522500 0.522500 -0.522500
v -0.522500 -0.522500 -0.522500
v -0.522500 0.522500 0.522500
v -0.522500 -0.522500 0.522500
vn 0.7071 0.7071 -0.0000
vn 0.7071 -0.0000 -0.7071
vn 0.7071 -0.7071 -0.0000
vn -0.7071 0.7071 -0.0000
vn -0.0000 -0.7071 -0.7071
vn -0.7071 -0.0000 -0.7071
vn -0.0000 0.7071 -0.7071
vn -0.0000 0.7071 0.7071
vn -0.7071 -0.0000 0.7071
vn -0.7071 -0.7071 -0.0000
vn -0.0000 -0.7071 0.7071
vn 0.7071 -0.0000 0.7071
vt 0.000000 0.000000
s 0
usemtl Material.001
f 4/1/1 12/1/1 10/1/1 2/1/1
f 3/1/2 11/1/2 12/1/2 4/1/2
f 1/1/3 9/1/3 11/1/3 3/1/3
f 6/1/4 14/1/4 16/1/4 8/1/4
f 5/1/5 13/1/5 9/1/5 1/1/5
f 8/1/6 16/1/6 15/1/6 7/1/6
f 2/1/7 10/1/7 14/1/7 6/1/7
f 8/1/8 16/1/8 12/1/8 4/1/8
f 5/1/9 13/1/9 14/1/9 6/1/9
f 1/1/6 9/1/6 10/1/6 2/1/6
f 7/1/10 15/1/10 13/1/10 5/1/10
f 3/1/11 11/1/11 15/1/11 7/1/11
f 20/1/10 18/1/10 26/1/10 28/1/10
f 19/1/9 20/1/9 28/1/9 27/1/9
f 17/1/4 19/1/4 27/1/4 25/1/4
f 22/1/3 24/1/3 32/1/3 30/1/3
f 21/1/8 17/1/8 25/1/8 29/1/8
f 24/1/12 23/1/12 31/1/12 32/1/12
f 18/1/11 22/1/11 30/1/11 26/1/11
f 24/1/5 20/1/5 28/1/5 32/1/5
f 21/1/2 22/1/2 30/1/2 29/1/2
f 17/1/12 18/1/12 26/1/12 25/1/12
f 23/1/1 21/1/1 29/1/1 31/1/1
f 19/1/7 23/1/7 31/1/7 27/1/7
